<?xml version="1.0" standalone="no"?>
<!DOCTYPE svg PUBLIC "-//W3C//DTD SVG 20010904//EN"
 "http://www.w3.org/TR/2001/REC-SVG-20010904/DTD/svg10.dtd">
<svg version="1.0" xmlns="http://www.w3.org/2000/svg"
 width="640.000000pt" height="640.000000pt" viewBox="0 0 640.000000 640.000000"
 preserveAspectRatio="xMidYMid meet">

<g transform="translate(0.000000,640.000000) scale(0.100000,-0.100000)"
fill="#000000" stroke="none">
<path d="M1690 3255 l0 -735 75 0 75 0 2 557 3 556 90 -104 c49 -57 125 -145
170 -194 44 -50 166 -189 270 -310 360 -415 436 -500 451 -503 12 -3 14 99 14
732 l0 736 -70 0 -70 0 -2 -559 -3 -559 -162 186 c-89 103 -230 266 -314 362
-83 96 -229 264 -322 373 -105 121 -178 197 -189 197 -17 0 -18 -32 -18 -735z"/>
<path d="M3326 3883 c-9 -60 -21 -146 -26 -193 -6 -47 -17 -125 -25 -175 -32
-200 -135 -946 -135 -978 0 -16 8 -18 68 -15 l67 3 17 130 c9 72 28 216 42
320 15 105 33 244 42 310 8 66 17 129 19 140 2 11 7 46 10 78 4 31 11 59 14
62 4 2 90 -163 192 -367 101 -204 218 -438 259 -522 42 -83 82 -152 91 -154
16 -3 19 1 334 643 108 220 199 402 201 404 9 10 13 -11 33 -169 12 -91 32
-244 46 -340 13 -96 34 -247 45 -335 29 -227 18 -205 101 -205 l71 0 -6 33
c-3 17 -15 100 -26 182 -12 83 -27 191 -35 240 -8 50 -19 131 -25 180 -6 50
-17 131 -25 180 -8 50 -31 205 -50 345 -20 140 -37 264 -40 275 -2 11 -4 23
-4 28 -1 4 -7 7 -15 7 -9 0 -49 -70 -99 -172 -147 -299 -336 -687 -419 -857
-46 -95 -83 -160 -88 -155 -8 9 -252 495 -484 967 -59 119 -113 217 -120 217
-9 0 -19 -35 -30 -107z"/>
</g>
</svg>
